/* XPM */
static char *_645bd12bd064a48ca3ce409e11cd23daXeACWafg4Q9kP4P[] = {
/* columns rows colors chars-per-pixel */
"100 100 24 1 ",
"  c #8B4100",
". c #8C4100",
"X c #8D4200",
"o c #8E4300",
"O c #904500",
"+ c #934700",
"@ c #934800",
"# c #944900",
"$ c #A05500",
"% c #A25600",
"& c #A75B00",
"* c #AC6000",
"= c #AC6100",
"- c #B26600",
"; c #BA6E00",
": c #BB6F00",
"> c #C97D00",
", c #CC8000",
"< c #D28600",
"1 c #D38700",
"2 c #D48800",
"3 c #D58900",
"4 c #D68A00",
"5 c #D78B00",
/* pixels */
"4444444444444444444444444444444444444444444444444:#.................................................",
"4444444444444444444444444444444444444444444444444:#.................................................",
"4444444444444444444444444444444444444444444444444:#.................................................",
"4444444444444444444444444444444444444444444444444:#.................................................",
"4444444444444444444444444444444444444444444444444:#.................................................",
"4444444444444444444444444444444444444444444444444:#.................................................",
"4444444444444444444444444444444444444444444444444:#.................................................",
"4444444444444444444444444444444444444444444444444:#.................................................",
"4444444444444444444444444444444444444444444444444:#.................................................",
"4444444444444444444444444444444444444444444444444:#.................................................",
"4444444444444444444444444444444444444444444444444:#.................................................",
"4444444444444444444444444444444444444444444444444:#.................................................",
"4444444444444444444444444444444444444444444444444:#.................................................",
"4444444444444444444444444444444444444444444444444:#.................................................",
"4444444444444444444444444444444444444444444444444:#.................................................",
"4444444444444444444444444444444444444444444444444:#.................................................",
"4444444444444444444444444444444444444444444444444:#.................................................",
"4444444444444444444444444444444444444444444444444:#.................................................",
"4444444444444444444444444444444444444444444444444:#.................................................",
"4444444444444444444444444444444444444444444444444:#.................................................",
"4444444444444444444444444444444444444444444444444:#.................................................",
"4444444444444444444444444444444444444444444444444:#.................................................",
"4444444444444444444444444444444444444444444444444:#.................................................",
"4444444444444444444444444444444444444444444444444:#.................................................",
"4444444444444444444444444444444444444444444444444:#.................................................",
"4444444444444444444444444444444444444444444444444:#.................................................",
"4444444444444444444444444444444444444444444444444:#.................................................",
"4444444444444444444444444444444444444444444444444:#.................................................",
"4444444444444444444444444444444444444444444444444:#.................................................",
"4444444444444444444444444444444444444444444444444:#.................................................",
"4444444444444444444444444444444444444444444444444:#.................................................",
"4444444444444444444444444444444444444444444444444:#.................................................",
"4444444444444444444444444444444444444444444444444:#.................................................",
"4444444444444444444444444444444444444444444444444:#.................................................",
"4444444444444444444444444444444444444444444444444:#.................................................",
"4444444444444444444444444444444444444444444444444:#.................................................",
"4444444444444444444444444444444444444444444444444:#.................................................",
"4444444444444444444444444444444444444444444444444:#.................................................",
"4444444444444444444444444444444444444444444444444:#.................................................",
"4444444444444444444444444444444444444444444444444:#.................................................",
"4444444444444444444444444444444444444444444444444:#.................................................",
"4444444444444444444444444444444444444444444444444:#.................................................",
"4444444444444444444444444444444444444444444444444:#.................................................",
"4444444444444444444444444444444444444444444444444:#.................................................",
"4444444444444444444444444444444444444444444444444:#.................................................",
"4444444444444444444444444444444444444444444444444:#.................................................",
"4444444444444444444444444444444444444444444444444:#.................................................",
"4444444444444444444444444444444444444444444444444:#.................................................",
"2424442424242424444242242424442444441441144114414:+ ............................................. ..",
"-------------------------------------------------$...++.o..OO..OO..OO.OOO..OO..O.OO+O.O.O.O.O.OO.+..",
"o+oo+oo+o+o+o+oo+o.+o+o+o+oo+oo+.++.o++++.OO+O+O+.#&=&=&=&===&&-&-=&&&-&-&&-&--&&-&&&-&-&&&-&=&==&==",
" . o.. . . . . o...... ....... .  ..  ............$>11411111111111111111<<<<<<1111<<<<11151111111111",
"..................................................%,554444445444444444441551555114445151515544445544",
"..................................................$,554444444444444444441555155555445555551544444544",
".................................................o$,544444444444444444445151515144445155555544444444",
"..................................................&>544444444444444444445555555544445515151544444444",
"..................................................%,544444444444444444444444444444444444444444444444",
".................................................O%,544444444444444444444444444444444444444444444444",
"..................................................%,544444444444444444444444444444444444444444444444",
"..................................................%>544444444444444444444444444444444444444444444444",
"..................................................%>544444444444444444444444444444444444444444444444",
".................................................O%,544444444444444444444444444444444444444444444444",
"..................................................%,544444444444444444444444444444444444444444444444",
".................................................O%,544444444444444444444444444444444444444444444444",
"..................................................%,544444444444444444444444444444444444444444444444",
".................................................o%,554444444444444444444444444444444444444444444444",
".................................................o%,544444444444444444444444444444444444444444444444",
"..................................................%,544444444444444444444444444444444444444444444444",
"................................................ +%,544444444444444444444444444444444444444444444444",
"..................................................%,544444444444444444444444444444444444444444444444",
"..................................................%,544444444444444444444444444444444444444444444444",
"..................................................$,544444444444444444444444444444444444444444444444",
"..................................................%,544444444444444444444444444444444444444444444444",
"..................................................%,544444444444444444444444444444444444444444444444",
"................................................ +%,544444444444444444444444444444444444444444444444",
"..................................................%,544444444444444444444444444444444444444444444444",
"..................................................%,554444444444444444444444444444444444444444444444",
"..................................................%,554444444444444444444444444444444444444444444444",
"..................................................%,544444444444444444444444444444444444444444444444",
"..................................................%,544444444444444444444444444444444444444444444444",
"..................................................%,544444444444444444444444444444444444444444444444",
".................................................o%,544444444444444444444444444444444444444444444444",
".................................................o%,544444444444444444444444444444444444444444444444",
"..................................................$,544444444444444444444444444444444444444444444444",
"..................................................%,544444444444444444444444444444444444444444444444",
".................................................o%,544444444444444444444444444444444444444444444444",
"..................................................%,544444444444444444444444444444444444444444444444",
".................................................o%,544444444444444444444444444444444444444444444444",
".................................................o%,544444444444444444444444444444444444444444444444",
"..................................................%,554444444444444444444444444444444444444444444444",
"..................................................%,544444444444444444444444444444444444444444444444",
".................................................o%,544444444444444444444444444444444444444444444444",
".................................................o$,544444444444444444444444444444444444444444444444",
"..................................................%,544444444444444444444444444444444444444444444444",
"..................................................&>544444444444444444444444444444444444444444444444",
".................................................o$,544444444444444444444444444444444444444444444444",
"..................................................%,554444444444444444444444444444444444444444444444",
".................................................o%,544444444444444444444444444444444444444444444444",
"..................................................%,544444444444444444444444444444444444444444444444",
"................................................ o%,544444444444444444444444444444444444444444444444"
};
